<svg xmlns="http://www.w3.org/2000/svg" width="900" height="520" viewBox="0 0 900 520"><rect width="100%" height="100%" fill="white"/><text x="450.0" y="28" text-anchor="middle" font-family="sans-serif" font-size="19" font-weight="bold">Page CER versus GPT-4o score</text><line x1="90" y1="55" x2="90" y2="450" stroke="#333"/><line x1="90" y1="450" x2="865" y2="450" stroke="#333"/><circle cx="477.5" cy="332.3" r="5" fill="#718096" fill-opacity="0.72"><title>surya/raw</title></circle><circle cx="477.5" cy="330.0" r="5" fill="#718096" fill-opacity="0.72"><title>surya/raw</title></circle><circle cx="477.5" cy="279.3" r="5" fill="#718096" fill-opacity="0.72"><title>surya/raw</title></circle><circle cx="477.5" cy="362.1" r="5" fill="#718096" fill-opacity="0.72"><title>surya/raw</title></circle><circle cx="477.5" cy="414.3" r="5" fill="#718096" fill-opacity="0.72"><title>surya/raw</title></circle><circle cx="477.5" cy="279.6" r="5" fill="#718096" fill-opacity="0.72"><title>surya/raw</title></circle><circle cx="865.0" cy="312.1" r="5" fill="#718096" fill-opacity="0.72"><title>surya/raw</title></circle><circle cx="477.5" cy="232.3" r="5" fill="#718096" fill-opacity="0.72"><title>surya/raw</title></circle><circle cx="477.5" cy="304.5" r="5" fill="#718096" fill-opacity="0.72"><title>surya/raw</title></circle><circle cx="477.5" cy="369.7" r="5" fill="#718096" fill-opacity="0.72"><title>surya/raw</title></circle><circle cx="477.5" cy="353.7" r="5" fill="#718096" fill-opacity="0.72"><title>surya/raw</title></circle><circle cx="477.5" cy="328.8" r="5" fill="#718096" fill-opacity="0.72"><title>surya/raw</title></circle><circle cx="477.5" cy="263.0" r="5" fill="#718096" fill-opacity="0.72"><title>surya/raw</title></circle><circle cx="477.5" cy="275.5" r="5" fill="#718096" fill-opacity="0.72"><title>surya/raw</title></circle><circle cx="477.5" cy="297.4" r="5" fill="#718096" fill-opacity="0.72"><title>surya/raw</title></circle><circle cx="477.5" cy="448.3" r="5" fill="#718096" fill-opacity="0.72"><title>surya/raw</title></circle><circle cx="477.5" cy="256.1" r="5" fill="#718096" fill-opacity="0.72"><title>surya/raw</title></circle><circle cx="477.5" cy="302.1" r="5" fill="#718096" fill-opacity="0.72"><title>surya/raw</title></circle><circle cx="477.5" cy="356.0" r="5" fill="#718096" fill-opacity="0.72"><title>surya/raw</title></circle><circle cx="477.5" cy="223.4" r="5" fill="#718096" fill-opacity="0.72"><title>surya/raw</title></circle><circle cx="477.5" cy="201.5" r="5" fill="#718096" fill-opacity="0.72"><title>surya/raw</title></circle><circle cx="477.5" cy="234.3" r="5" fill="#718096" fill-opacity="0.72"><title>surya/raw</title></circle><circle cx="477.5" cy="311.0" r="5" fill="#2b6cb0" fill-opacity="0.72"><title>surya/processed</title></circle><circle cx="477.5" cy="312.1" r="5" fill="#2b6cb0" fill-opacity="0.72"><title>surya/processed</title></circle><circle cx="477.5" cy="331.1" r="5" fill="#2b6cb0" fill-opacity="0.72"><title>surya/processed</title></circle><circle cx="477.5" cy="237.1" r="5" fill="#2b6cb0" fill-opacity="0.72"><title>surya/processed</title></circle><circle cx="477.5" cy="366.6" r="5" fill="#2b6cb0" fill-opacity="0.72"><title>surya/processed</title></circle><circle cx="90.0" cy="244.8" r="5" fill="#2b6cb0" fill-opacity="0.72"><title>surya/processed</title></circle><circle cx="477.5" cy="265.7" r="5" fill="#2b6cb0" fill-opacity="0.72"><title>surya/processed</title></circle><circle cx="477.5" cy="301.0" r="5" fill="#2b6cb0" fill-opacity="0.72"><title>surya/processed</title></circle><circle cx="477.5" cy="251.2" r="5" fill="#2b6cb0" fill-opacity="0.72"><title>surya/processed</title></circle><circle cx="477.5" cy="301.0" r="5" fill="#2b6cb0" fill-opacity="0.72"><title>surya/processed</title></circle><circle cx="477.5" cy="333.3" r="5" fill="#2b6cb0" fill-opacity="0.72"><title>surya/processed</title></circle><circle cx="477.5" cy="281.5" r="5" fill="#2b6cb0" fill-opacity="0.72"><title>surya/processed</title></circle><circle cx="477.5" cy="298.2" r="5" fill="#2b6cb0" fill-opacity="0.72"><title>surya/processed</title></circle><circle cx="477.5" cy="283.7" r="5" fill="#2b6cb0" fill-opacity="0.72"><title>surya/processed</title></circle><circle cx="477.5" cy="297.4" r="5" fill="#2b6cb0" fill-opacity="0.72"><title>surya/processed</title></circle><circle cx="477.5" cy="364.8" r="5" fill="#2b6cb0" fill-opacity="0.72"><title>surya/processed</title></circle><circle cx="477.5" cy="283.4" r="5" fill="#2b6cb0" fill-opacity="0.72"><title>surya/processed</title></circle><circle cx="477.5" cy="270.8" r="5" fill="#2b6cb0" fill-opacity="0.72"><title>surya/processed</title></circle><circle cx="477.5" cy="344.8" r="5" fill="#2b6cb0" fill-opacity="0.72"><title>surya/processed</title></circle><circle cx="477.5" cy="213.1" r="5" fill="#2b6cb0" fill-opacity="0.72"><title>surya/processed</title></circle><circle cx="477.5" cy="162.9" r="5" fill="#2b6cb0" fill-opacity="0.72"><title>surya/processed</title></circle><circle cx="477.5" cy="350.6" r="5" fill="#2b6cb0" fill-opacity="0.72"><title>surya/processed</title></circle><circle cx="477.5" cy="232.8" r="5" fill="#2b6cb0" fill-opacity="0.72"><title>surya/processed</title></circle><circle cx="477.5" cy="258.0" r="5" fill="#2b6cb0" fill-opacity="0.72"><title>surya/processed</title></circle><circle cx="477.5" cy="341.8" r="5" fill="#2b6cb0" fill-opacity="0.72"><title>surya/processed</title></circle><circle cx="477.5" cy="344.3" r="5" fill="#2b6cb0" fill-opacity="0.72"><title>surya/processed</title></circle><circle cx="477.5" cy="331.1" r="5" fill="#2b6cb0" fill-opacity="0.72"><title>surya/processed</title></circle><circle cx="477.5" cy="352.3" r="5" fill="#2b6cb0" fill-opacity="0.72"><title>surya/processed</title></circle><circle cx="477.5" cy="322.2" r="5" fill="#2b6cb0" fill-opacity="0.72"><title>surya/processed</title></circle><circle cx="865.0" cy="433.6" r="5" fill="#2b6cb0" fill-opacity="0.72"><title>surya/processed</title></circle><circle cx="477.5" cy="382.7" r="5" fill="#2b6cb0" fill-opacity="0.72"><title>surya/processed</title></circle><circle cx="477.5" cy="413.3" r="5" fill="#2b6cb0" fill-opacity="0.72"><title>surya/processed</title></circle><circle cx="90.0" cy="159.5" r="5" fill="#2b6cb0" fill-opacity="0.72"><title>surya/processed</title></circle><circle cx="477.5" cy="244.4" r="5" fill="#2b6cb0" fill-opacity="0.72"><title>surya/processed</title></circle><circle cx="477.5" cy="275.0" r="5" fill="#2b6cb0" fill-opacity="0.72"><title>surya/processed</title></circle><circle cx="477.5" cy="274.7" r="5" fill="#2b6cb0" fill-opacity="0.72"><title>surya/processed</title></circle><circle cx="477.5" cy="294.4" r="5" fill="#2b6cb0" fill-opacity="0.72"><title>surya/processed</title></circle><circle cx="477.5" cy="308.5" r="5" fill="#2b6cb0" fill-opacity="0.72"><title>surya/processed</title></circle><circle cx="477.5" cy="273.1" r="5" fill="#2b6cb0" fill-opacity="0.72"><title>surya/processed</title></circle><circle cx="477.5" cy="270.2" r="5" fill="#2b6cb0" fill-opacity="0.72"><title>surya/processed</title></circle><circle cx="90.0" cy="154.6" r="5" fill="#718096" fill-opacity="0.72"><title>tesseract/raw</title></circle><circle cx="477.5" cy="305.0" r="5" fill="#718096" fill-opacity="0.72"><title>tesseract/raw</title></circle><circle cx="90.0" cy="217.2" r="5" fill="#718096" fill-opacity="0.72"><title>tesseract/raw</title></circle><circle cx="90.0" cy="383.5" r="5" fill="#718096" fill-opacity="0.72"><title>tesseract/raw</title></circle><circle cx="90.0" cy="205.3" r="5" fill="#718096" fill-opacity="0.72"><title>tesseract/raw</title></circle><circle cx="90.0" cy="260.2" r="5" fill="#718096" fill-opacity="0.72"><title>tesseract/raw</title></circle><circle cx="90.0" cy="222.8" r="5" fill="#718096" fill-opacity="0.72"><title>tesseract/raw</title></circle><circle cx="477.5" cy="293.8" r="5" fill="#718096" fill-opacity="0.72"><title>tesseract/raw</title></circle><circle cx="477.5" cy="291.1" r="5" fill="#718096" fill-opacity="0.72"><title>tesseract/raw</title></circle><circle cx="90.0" cy="210.6" r="5" fill="#718096" fill-opacity="0.72"><title>tesseract/raw</title></circle><circle cx="90.0" cy="262.1" r="5" fill="#718096" fill-opacity="0.72"><title>tesseract/raw</title></circle><circle cx="90.0" cy="244.3" r="5" fill="#718096" fill-opacity="0.72"><title>tesseract/raw</title></circle><circle cx="477.5" cy="248.9" r="5" fill="#718096" fill-opacity="0.72"><title>tesseract/raw</title></circle><circle cx="477.5" cy="251.0" r="5" fill="#718096" fill-opacity="0.72"><title>tesseract/raw</title></circle><circle cx="90.0" cy="243.5" r="5" fill="#718096" fill-opacity="0.72"><title>tesseract/raw</title></circle><circle cx="477.5" cy="277.7" r="5" fill="#718096" fill-opacity="0.72"><title>tesseract/raw</title></circle><circle cx="90.0" cy="61.8" r="5" fill="#718096" fill-opacity="0.72"><title>tesseract/raw</title></circle><circle cx="90.0" cy="55.0" r="5" fill="#718096" fill-opacity="0.72"><title>tesseract/raw</title></circle><circle cx="90.0" cy="77.3" r="5" fill="#718096" fill-opacity="0.72"><title>tesseract/raw</title></circle><circle cx="90.0" cy="85.9" r="5" fill="#718096" fill-opacity="0.72"><title>tesseract/raw</title></circle><circle cx="90.0" cy="116.7" r="5" fill="#718096" fill-opacity="0.72"><title>tesseract/raw</title></circle><circle cx="90.0" cy="142.6" r="5" fill="#718096" fill-opacity="0.72"><title>tesseract/raw</title></circle><circle cx="90.0" cy="65.7" r="5" fill="#718096" fill-opacity="0.72"><title>tesseract/raw</title></circle><circle cx="90.0" cy="64.7" r="5" fill="#718096" fill-opacity="0.72"><title>tesseract/raw</title></circle><circle cx="90.0" cy="90.4" r="5" fill="#718096" fill-opacity="0.72"><title>tesseract/raw</title></circle><circle cx="90.0" cy="55.0" r="5" fill="#718096" fill-opacity="0.72"><title>tesseract/raw</title></circle><circle cx="90.0" cy="55.0" r="5" fill="#718096" fill-opacity="0.72"><title>tesseract/raw</title></circle><circle cx="477.5" cy="323.0" r="5" fill="#718096" fill-opacity="0.72"><title>tesseract/raw</title></circle><circle cx="477.5" cy="217.6" r="5" fill="#718096" fill-opacity="0.72"><title>tesseract/raw</title></circle><circle cx="90.0" cy="136.1" r="5" fill="#718096" fill-opacity="0.72"><title>tesseract/raw</title></circle><circle cx="90.0" cy="104.0" r="5" fill="#718096" fill-opacity="0.72"><title>tesseract/raw</title></circle><circle cx="90.0" cy="122.2" r="5" fill="#718096" fill-opacity="0.72"><title>tesseract/raw</title></circle><circle cx="90.0" cy="145.0" r="5" fill="#718096" fill-opacity="0.72"><title>tesseract/raw</title></circle><circle cx="90.0" cy="165.5" r="5" fill="#718096" fill-opacity="0.72"><title>tesseract/raw</title></circle><circle cx="90.0" cy="140.9" r="5" fill="#718096" fill-opacity="0.72"><title>tesseract/raw</title></circle><circle cx="90.0" cy="166.8" r="5" fill="#718096" fill-opacity="0.72"><title>tesseract/raw</title></circle><circle cx="477.5" cy="217.0" r="5" fill="#718096" fill-opacity="0.72"><title>tesseract/raw</title></circle><circle cx="90.0" cy="162.1" r="5" fill="#718096" fill-opacity="0.72"><title>tesseract/raw</title></circle><circle cx="90.0" cy="119.8" r="5" fill="#718096" fill-opacity="0.72"><title>tesseract/raw</title></circle><circle cx="90.0" cy="62.2" r="5" fill="#718096" fill-opacity="0.72"><title>tesseract/raw</title></circle><circle cx="477.5" cy="328.8" r="5" fill="#dd6b20" fill-opacity="0.72"><title>tesseract/processed</title></circle><circle cx="477.5" cy="383.5" r="5" fill="#dd6b20" fill-opacity="0.72"><title>tesseract/processed</title></circle><circle cx="477.5" cy="338.0" r="5" fill="#dd6b20" fill-opacity="0.72"><title>tesseract/processed</title></circle><circle cx="477.5" cy="387.1" r="5" fill="#dd6b20" fill-opacity="0.72"><title>tesseract/processed</title></circle><circle cx="477.5" cy="377.6" r="5" fill="#dd6b20" fill-opacity="0.72"><title>tesseract/processed</title></circle><circle cx="477.5" cy="376.4" r="5" fill="#dd6b20" fill-opacity="0.72"><title>tesseract/processed</title></circle><circle cx="477.5" cy="322.8" r="5" fill="#dd6b20" fill-opacity="0.72"><title>tesseract/processed</title></circle><circle cx="477.5" cy="326.3" r="5" fill="#dd6b20" fill-opacity="0.72"><title>tesseract/processed</title></circle><circle cx="477.5" cy="380.9" r="5" fill="#dd6b20" fill-opacity="0.72"><title>tesseract/processed</title></circle><circle cx="477.5" cy="326.3" r="5" fill="#dd6b20" fill-opacity="0.72"><title>tesseract/processed</title></circle><circle cx="477.5" cy="333.3" r="5" fill="#dd6b20" fill-opacity="0.72"><title>tesseract/processed</title></circle><circle cx="477.5" cy="352.5" r="5" fill="#dd6b20" fill-opacity="0.72"><title>tesseract/processed</title></circle><circle cx="477.5" cy="319.4" r="5" fill="#dd6b20" fill-opacity="0.72"><title>tesseract/processed</title></circle><circle cx="477.5" cy="308.2" r="5" fill="#dd6b20" fill-opacity="0.72"><title>tesseract/processed</title></circle><circle cx="477.5" cy="334.4" r="5" fill="#dd6b20" fill-opacity="0.72"><title>tesseract/processed</title></circle><circle cx="477.5" cy="343.9" r="5" fill="#dd6b20" fill-opacity="0.72"><title>tesseract/processed</title></circle><circle cx="90.0" cy="147.0" r="5" fill="#dd6b20" fill-opacity="0.72"><title>tesseract/processed</title></circle><circle cx="90.0" cy="208.1" r="5" fill="#dd6b20" fill-opacity="0.72"><title>tesseract/processed</title></circle><circle cx="90.0" cy="159.0" r="5" fill="#dd6b20" fill-opacity="0.72"><title>tesseract/processed</title></circle><circle cx="90.0" cy="137.5" r="5" fill="#dd6b20" fill-opacity="0.72"><title>tesseract/processed</title></circle><circle cx="90.0" cy="174.5" r="5" fill="#dd6b20" fill-opacity="0.72"><title>tesseract/processed</title></circle><circle cx="90.0" cy="190.0" r="5" fill="#dd6b20" fill-opacity="0.72"><title>tesseract/processed</title></circle><circle cx="477.5" cy="190.1" r="5" fill="#dd6b20" fill-opacity="0.72"><title>tesseract/processed</title></circle><circle cx="90.0" cy="200.0" r="5" fill="#dd6b20" fill-opacity="0.72"><title>tesseract/processed</title></circle><circle cx="477.5" cy="345.3" r="5" fill="#dd6b20" fill-opacity="0.72"><title>tesseract/processed</title></circle><circle cx="477.5" cy="371.6" r="5" fill="#dd6b20" fill-opacity="0.72"><title>tesseract/processed</title></circle><circle cx="477.5" cy="398.4" r="5" fill="#dd6b20" fill-opacity="0.72"><title>tesseract/processed</title></circle><circle cx="90.0" cy="431.8" r="5" fill="#dd6b20" fill-opacity="0.72"><title>tesseract/processed</title></circle><circle cx="477.5" cy="450.0" r="5" fill="#dd6b20" fill-opacity="0.72"><title>tesseract/processed</title></circle><circle cx="477.5" cy="406.6" r="5" fill="#dd6b20" fill-opacity="0.72"><title>tesseract/processed</title></circle><circle cx="477.5" cy="405.3" r="5" fill="#dd6b20" fill-opacity="0.72"><title>tesseract/processed</title></circle><circle cx="477.5" cy="432.0" r="5" fill="#dd6b20" fill-opacity="0.72"><title>tesseract/processed</title></circle><circle cx="477.5" cy="209.9" r="5" fill="#dd6b20" fill-opacity="0.72"><title>tesseract/processed</title></circle><circle cx="90.0" cy="177.3" r="5" fill="#dd6b20" fill-opacity="0.72"><title>tesseract/processed</title></circle><circle cx="477.5" cy="223.4" r="5" fill="#dd6b20" fill-opacity="0.72"><title>tesseract/processed</title></circle><circle cx="477.5" cy="232.3" r="5" fill="#dd6b20" fill-opacity="0.72"><title>tesseract/processed</title></circle><circle cx="477.5" cy="323.8" r="5" fill="#dd6b20" fill-opacity="0.72"><title>tesseract/processed</title></circle><circle cx="477.5" cy="358.5" r="5" fill="#dd6b20" fill-opacity="0.72"><title>tesseract/processed</title></circle><circle cx="477.5" cy="218.6" r="5" fill="#dd6b20" fill-opacity="0.72"><title>tesseract/processed</title></circle><circle cx="90.0" cy="252.2" r="5" fill="#dd6b20" fill-opacity="0.72"><title>tesseract/processed</title></circle><text x="477.5" y="502" text-anchor="middle" font-family="sans-serif" font-size="13">GPT-4o score</text><text x="20" y="252.5" text-anchor="middle" transform="rotate(-90 20 252.5)" font-family="sans-serif" font-size="13">Page CER</text></svg>
