<svg xmlns="http://www.w3.org/2000/svg" width="900" height="520" viewBox="0 0 900 520"><rect width="100%" height="100%" fill="white"/><text x="450.0" y="28" text-anchor="middle" font-family="sans-serif" font-size="19" font-weight="bold">OCR accuracy and coverage</text><line x1="90" y1="55" x2="90" y2="420" stroke="#333"/><line x1="90" y1="420" x2="870" y2="420" stroke="#333"/><line x1="90" y1="420.0" x2="870" y2="420.0" stroke="#e2e8f0"/><text x="82" y="424.0" text-anchor="end" font-family="sans-serif" font-size="11">0.00</text><line x1="90" y1="347.0" x2="870" y2="347.0" stroke="#e2e8f0"/><text x="82" y="351.0" text-anchor="end" font-family="sans-serif" font-size="11">113.60</text><line x1="90" y1="274.0" x2="870" y2="274.0" stroke="#e2e8f0"/><text x="82" y="278.0" text-anchor="end" font-family="sans-serif" font-size="11">227.20</text><line x1="90" y1="201.0" x2="870" y2="201.0" stroke="#e2e8f0"/><text x="82" y="205.0" text-anchor="end" font-family="sans-serif" font-size="11">340.80</text><line x1="90" y1="128.0" x2="870" y2="128.0" stroke="#e2e8f0"/><text x="82" y="132.0" text-anchor="end" font-family="sans-serif" font-size="11">454.40</text><line x1="90" y1="55.0" x2="870" y2="55.0" stroke="#e2e8f0"/><text x="82" y="59.0" text-anchor="end" font-family="sans-serif" font-size="11">568.00</text><text x="187.5" y="442" text-anchor="middle" font-family="sans-serif" font-size="11">surya/raw</text><rect x="114.4" y="419.6" width="40.0" height="0.4" fill="#c53030"/><text x="134.4" y="415.6" text-anchor="middle" font-family="sans-serif" font-size="10">0.677</text><rect x="163.1" y="232.4" width="40.0" height="187.6" fill="#805ad5"/><text x="183.1" y="228.4" text-anchor="middle" font-family="sans-serif" font-size="10">292.000</text><rect x="211.9" y="419.7" width="40.0" height="0.3" fill="#2f855a"/><text x="231.9" y="415.7" text-anchor="middle" font-family="sans-serif" font-size="10">0.533</text><text x="382.5" y="442" text-anchor="middle" font-family="sans-serif" font-size="11">surya/processed</text><rect x="309.4" y="419.6" width="40.0" height="0.4" fill="#c53030"/><text x="329.4" y="415.6" text-anchor="middle" font-family="sans-serif" font-size="10">0.694</text><rect x="358.1" y="55.0" width="40.0" height="365.0" fill="#805ad5"/><text x="378.1" y="51.0" text-anchor="middle" font-family="sans-serif" font-size="10">568.000</text><rect x="406.9" y="419.4" width="40.0" height="0.6" fill="#2f855a"/><text x="426.9" y="415.4" text-anchor="middle" font-family="sans-serif" font-size="10">1.000</text><text x="577.5" y="442" text-anchor="middle" font-family="sans-serif" font-size="11">tesseract/raw</text><rect x="504.4" y="419.5" width="40.0" height="0.5" fill="#c53030"/><text x="524.4" y="415.5" text-anchor="middle" font-family="sans-serif" font-size="10">0.796</text><rect x="553.1" y="291.5" width="40.0" height="128.5" fill="#805ad5"/><text x="573.1" y="287.5" text-anchor="middle" font-family="sans-serif" font-size="10">200.000</text><rect x="601.9" y="419.4" width="40.0" height="0.6" fill="#2f855a"/><text x="621.9" y="415.4" text-anchor="middle" font-family="sans-serif" font-size="10">1.000</text><text x="772.5" y="442" text-anchor="middle" font-family="sans-serif" font-size="11">tesseract/processed</text><rect x="699.4" y="419.6" width="40.0" height="0.4" fill="#c53030"/><text x="719.4" y="415.6" text-anchor="middle" font-family="sans-serif" font-size="10">0.687</text><rect x="748.1" y="74.9" width="40.0" height="345.1" fill="#805ad5"/><text x="768.1" y="70.9" text-anchor="middle" font-family="sans-serif" font-size="10">537.000</text><rect x="796.9" y="419.4" width="40.0" height="0.6" fill="#2f855a"/><text x="816.9" y="415.4" text-anchor="middle" font-family="sans-serif" font-size="10">1.000</text><rect x="90" y="488" width="14" height="14" fill="#c53030"/><text x="110" y="500" font-family="sans-serif" font-size="12">CER</text><rect x="245" y="488" width="14" height="14" fill="#805ad5"/><text x="265" y="500" font-family="sans-serif" font-size="12">WER</text><rect x="400" y="488" width="14" height="14" fill="#2f855a"/><text x="420" y="500" font-family="sans-serif" font-size="12">Coverage</text></svg>
