<svg xmlns="http://www.w3.org/2000/svg" width="900" height="520" viewBox="0 0 900 520"><rect width="100%" height="100%" fill="white"/><text x="450.0" y="28" text-anchor="middle" font-family="sans-serif" font-size="19" font-weight="bold">GPT-4o lexical-quality scores</text><line x1="90" y1="55" x2="90" y2="435" stroke="#333"/><line x1="90" y1="435" x2="870" y2="435" stroke="#333"/><line x1="90" y1="435.0" x2="870" y2="435.0" stroke="#e2e8f0"/><text x="82" y="439.0" text-anchor="end" font-family="sans-serif" font-size="11">0</text><line x1="90" y1="359.0" x2="870" y2="359.0" stroke="#e2e8f0"/><text x="82" y="363.0" text-anchor="end" font-family="sans-serif" font-size="11">1</text><line x1="90" y1="283.0" x2="870" y2="283.0" stroke="#e2e8f0"/><text x="82" y="287.0" text-anchor="end" font-family="sans-serif" font-size="11">2</text><line x1="90" y1="207.0" x2="870" y2="207.0" stroke="#e2e8f0"/><text x="82" y="211.0" text-anchor="end" font-family="sans-serif" font-size="11">3</text><line x1="90" y1="131.0" x2="870" y2="131.0" stroke="#e2e8f0"/><text x="82" y="135.0" text-anchor="end" font-family="sans-serif" font-size="11">4</text><line x1="90" y1="55.0" x2="870" y2="55.0" stroke="#e2e8f0"/><text x="82" y="59.0" text-anchor="end" font-family="sans-serif" font-size="11">5</text><line x1="187.5" y1="283.0" x2="187.5" y2="207.0" stroke="#333"/><rect x="159.5" y="283.0" width="56" height="0.0" fill="#2b6cb0" fill-opacity="0.55" stroke="#333"/><line x1="159.5" y1="283.0" x2="215.5" y2="283.0" stroke="#111" stroke-width="2"/><text x="187.5" y="457" text-anchor="middle" font-family="sans-serif" font-size="11">surya/raw</text><line x1="382.5" y1="359.0" x2="382.5" y2="207.0" stroke="#333"/><rect x="354.5" y="283.0" width="56" height="0.0" fill="#2b6cb0" fill-opacity="0.55" stroke="#333"/><line x1="354.5" y1="283.0" x2="410.5" y2="283.0" stroke="#111" stroke-width="2"/><text x="382.5" y="457" text-anchor="middle" font-family="sans-serif" font-size="11">surya/processed</text><line x1="577.5" y1="359.0" x2="577.5" y2="283.0" stroke="#333"/><rect x="549.5" y="359.0" width="56" height="0.0" fill="#dd6b20" fill-opacity="0.55" stroke="#333"/><line x1="549.5" y1="359.0" x2="605.5" y2="359.0" stroke="#111" stroke-width="2"/><text x="577.5" y="457" text-anchor="middle" font-family="sans-serif" font-size="11">tesseract/raw</text><line x1="772.5" y1="359.0" x2="772.5" y2="283.0" stroke="#333"/><rect x="744.5" y="283.0" width="56" height="19.0" fill="#dd6b20" fill-opacity="0.55" stroke="#333"/><line x1="744.5" y1="283.0" x2="800.5" y2="283.0" stroke="#111" stroke-width="2"/><text x="772.5" y="457" text-anchor="middle" font-family="sans-serif" font-size="11">tesseract/processed</text></svg>
