<svg xmlns="http://www.w3.org/2000/svg" width="950" height="400" viewBox="0 0 950 400"><rect width="100%" height="100%" fill="white"/><text x="475.0" y="28" text-anchor="middle" font-family="sans-serif" font-size="19" font-weight="bold">Error rate by configuration</text><text x="298.8" y="68" text-anchor="middle" font-family="sans-serif" font-size="11">surya/raw</text><text x="476.2" y="68" text-anchor="middle" font-family="sans-serif" font-size="11">surya/processed</text><text x="653.8" y="68" text-anchor="middle" font-family="sans-serif" font-size="11">tesseract/raw</text><text x="831.2" y="68" text-anchor="middle" font-family="sans-serif" font-size="11">tesseract/processed</text><text x="200" y="106" text-anchor="end" font-family="sans-serif" font-size="11">diacritic_or_vowel_sign_error</text><rect x="210.0" y="80" width="175.5" height="40" fill="rgb(77,87,236)"/><text x="298.8" y="105" text-anchor="middle" font-family="sans-serif" font-size="10">0.908</text><rect x="387.5" y="80" width="175.5" height="40" fill="rgb(79,89,236)"/><text x="476.2" y="105" text-anchor="middle" font-family="sans-serif" font-size="10">0.896</text><rect x="565.0" y="80" width="175.5" height="40" fill="rgb(70,80,238)"/><text x="653.8" y="105" text-anchor="middle" font-family="sans-serif" font-size="10">0.949</text><rect x="742.5" y="80" width="175.5" height="40" fill="rgb(73,83,237)"/><text x="831.2" y="105" text-anchor="middle" font-family="sans-serif" font-size="10">0.930</text><text x="200" y="148" text-anchor="end" font-family="sans-serif" font-size="11">deletion</text><rect x="210.0" y="122" width="175.5" height="40" fill="rgb(127,137,224)"/><text x="298.8" y="147" text-anchor="middle" font-family="sans-serif" font-size="10">0.639</text><rect x="387.5" y="122" width="175.5" height="40" fill="rgb(131,141,223)"/><text x="476.2" y="147" text-anchor="middle" font-family="sans-serif" font-size="10">0.616</text><rect x="565.0" y="122" width="175.5" height="40" fill="rgb(85,95,234)"/><text x="653.8" y="147" text-anchor="middle" font-family="sans-serif" font-size="10">0.867</text><rect x="742.5" y="122" width="175.5" height="40" fill="rgb(122,132,225)"/><text x="831.2" y="147" text-anchor="middle" font-family="sans-serif" font-size="10">0.663</text><text x="200" y="190" text-anchor="end" font-family="sans-serif" font-size="11">virama_or_conjunct_error</text><rect x="210.0" y="164" width="175.5" height="40" fill="rgb(156,166,216)"/><text x="298.8" y="189" text-anchor="middle" font-family="sans-serif" font-size="10">0.482</text><rect x="387.5" y="164" width="175.5" height="40" fill="rgb(149,159,218)"/><text x="476.2" y="189" text-anchor="middle" font-family="sans-serif" font-size="10">0.519</text><rect x="565.0" y="164" width="175.5" height="40" fill="rgb(144,154,219)"/><text x="653.8" y="189" text-anchor="middle" font-family="sans-serif" font-size="10">0.546</text><rect x="742.5" y="164" width="175.5" height="40" fill="rgb(147,157,219)"/><text x="831.2" y="189" text-anchor="middle" font-family="sans-serif" font-size="10">0.530</text><text x="200" y="232" text-anchor="end" font-family="sans-serif" font-size="11">missing_output</text><rect x="210.0" y="206" width="175.5" height="40" fill="rgb(152,162,217)"/><text x="298.8" y="231" text-anchor="middle" font-family="sans-serif" font-size="10">0.500</text><rect x="387.5" y="206" width="175.5" height="40" fill="rgb(152,162,217)"/><text x="476.2" y="231" text-anchor="middle" font-family="sans-serif" font-size="10">0.503</text><rect x="565.0" y="206" width="175.5" height="40" fill="rgb(104,114,229)"/><text x="653.8" y="231" text-anchor="middle" font-family="sans-serif" font-size="10">0.760</text><rect x="742.5" y="206" width="175.5" height="40" fill="rgb(191,201,208)"/><text x="831.2" y="231" text-anchor="middle" font-family="sans-serif" font-size="10">0.291</text><text x="200" y="274" text-anchor="end" font-family="sans-serif" font-size="11">base_character_substitution</text><rect x="210.0" y="248" width="175.5" height="40" fill="rgb(176,186,211)"/><text x="298.8" y="273" text-anchor="middle" font-family="sans-serif" font-size="10">0.371</text><rect x="387.5" y="248" width="175.5" height="40" fill="rgb(176,186,211)"/><text x="476.2" y="273" text-anchor="middle" font-family="sans-serif" font-size="10">0.369</text><rect x="565.0" y="248" width="175.5" height="40" fill="rgb(214,224,202)"/><text x="653.8" y="273" text-anchor="middle" font-family="sans-serif" font-size="10">0.166</text><rect x="742.5" y="248" width="175.5" height="40" fill="rgb(147,157,219)"/><text x="831.2" y="273" text-anchor="middle" font-family="sans-serif" font-size="10">0.528</text><text x="200" y="316" text-anchor="end" font-family="sans-serif" font-size="11">word_boundary_split_or_join</text><rect x="210.0" y="290" width="175.5" height="40" fill="rgb(200,210,205)"/><text x="298.8" y="315" text-anchor="middle" font-family="sans-serif" font-size="10">0.240</text><rect x="387.5" y="290" width="175.5" height="40" fill="rgb(202,212,205)"/><text x="476.2" y="315" text-anchor="middle" font-family="sans-serif" font-size="10">0.229</text><rect x="565.0" y="290" width="175.5" height="40" fill="rgb(238,248,196)"/><text x="653.8" y="315" text-anchor="middle" font-family="sans-serif" font-size="10">0.037</text><rect x="742.5" y="290" width="175.5" height="40" fill="rgb(187,197,209)"/><text x="831.2" y="315" text-anchor="middle" font-family="sans-serif" font-size="10">0.313</text></svg>
