<svg xmlns="http://www.w3.org/2000/svg" width="900" height="520" viewBox="0 0 900 520"><rect width="100%" height="100%" fill="white"/><text x="450.0" y="28" text-anchor="middle" font-family="sans-serif" font-size="19" font-weight="bold">Most common deterministic OCR error categories</text><line x1="90" y1="55" x2="90" y2="420" stroke="#333"/><line x1="90" y1="420" x2="870" y2="420" stroke="#333"/><line x1="90" y1="420.0" x2="870" y2="420.0" stroke="#e2e8f0"/><text x="82" y="424.0" text-anchor="end" font-family="sans-serif" font-size="11">0.00</text><line x1="90" y1="347.0" x2="870" y2="347.0" stroke="#e2e8f0"/><text x="82" y="351.0" text-anchor="end" font-family="sans-serif" font-size="11">0.20</text><line x1="90" y1="274.0" x2="870" y2="274.0" stroke="#e2e8f0"/><text x="82" y="278.0" text-anchor="end" font-family="sans-serif" font-size="11">0.40</text><line x1="90" y1="201.0" x2="870" y2="201.0" stroke="#e2e8f0"/><text x="82" y="205.0" text-anchor="end" font-family="sans-serif" font-size="11">0.60</text><line x1="90" y1="128.0" x2="870" y2="128.0" stroke="#e2e8f0"/><text x="82" y="132.0" text-anchor="end" font-family="sans-serif" font-size="11">0.80</text><line x1="90" y1="55.0" x2="870" y2="55.0" stroke="#e2e8f0"/><text x="82" y="59.0" text-anchor="end" font-family="sans-serif" font-size="11">1.00</text><text x="187.5" y="442" text-anchor="middle" font-family="sans-serif" font-size="11">surya/raw</text><rect x="103.9" y="88.5" width="22.8" height="331.5" fill="#c53030"/><text x="115.3" y="84.5" text-anchor="middle" font-family="sans-serif" font-size="10">0.908</text><rect x="131.8" y="186.9" width="22.8" height="233.1" fill="#dd6b20"/><text x="143.2" y="182.9" text-anchor="middle" font-family="sans-serif" font-size="10">0.639</text><rect x="159.6" y="243.9" width="22.8" height="176.1" fill="#d69e2e"/><text x="171.1" y="239.9" text-anchor="middle" font-family="sans-serif" font-size="10">0.482</text><rect x="187.5" y="237.5" width="22.8" height="182.5" fill="#38a169"/><text x="198.9" y="233.5" text-anchor="middle" font-family="sans-serif" font-size="10">0.500</text><rect x="215.4" y="284.6" width="22.8" height="135.4" fill="#3182ce"/><text x="226.8" y="280.6" text-anchor="middle" font-family="sans-serif" font-size="10">0.371</text><rect x="243.2" y="332.3" width="22.8" height="87.7" fill="#805ad5"/><text x="254.6" y="328.3" text-anchor="middle" font-family="sans-serif" font-size="10">0.240</text><text x="382.5" y="442" text-anchor="middle" font-family="sans-serif" font-size="11">surya/processed</text><rect x="298.9" y="93.0" width="22.8" height="327.0" fill="#c53030"/><text x="310.4" y="89.0" text-anchor="middle" font-family="sans-serif" font-size="10">0.896</text><rect x="326.8" y="195.2" width="22.8" height="224.8" fill="#dd6b20"/><text x="338.2" y="191.2" text-anchor="middle" font-family="sans-serif" font-size="10">0.616</text><rect x="354.6" y="230.5" width="22.8" height="189.5" fill="#d69e2e"/><text x="366.1" y="226.5" text-anchor="middle" font-family="sans-serif" font-size="10">0.519</text><rect x="382.5" y="236.6" width="22.8" height="183.4" fill="#38a169"/><text x="393.9" y="232.6" text-anchor="middle" font-family="sans-serif" font-size="10">0.503</text><rect x="410.4" y="285.2" width="22.8" height="134.8" fill="#3182ce"/><text x="421.8" y="281.2" text-anchor="middle" font-family="sans-serif" font-size="10">0.369</text><rect x="438.2" y="336.4" width="22.8" height="83.6" fill="#805ad5"/><text x="449.6" y="332.4" text-anchor="middle" font-family="sans-serif" font-size="10">0.229</text><text x="577.5" y="442" text-anchor="middle" font-family="sans-serif" font-size="11">tesseract/raw</text><rect x="493.9" y="73.6" width="22.8" height="346.4" fill="#c53030"/><text x="505.4" y="69.6" text-anchor="middle" font-family="sans-serif" font-size="10">0.949</text><rect x="521.8" y="103.6" width="22.8" height="316.4" fill="#dd6b20"/><text x="533.2" y="99.6" text-anchor="middle" font-family="sans-serif" font-size="10">0.867</text><rect x="549.6" y="220.6" width="22.8" height="199.4" fill="#d69e2e"/><text x="561.1" y="216.6" text-anchor="middle" font-family="sans-serif" font-size="10">0.546</text><rect x="577.5" y="142.7" width="22.8" height="277.3" fill="#38a169"/><text x="588.9" y="138.7" text-anchor="middle" font-family="sans-serif" font-size="10">0.760</text><rect x="605.4" y="359.2" width="22.8" height="60.8" fill="#3182ce"/><text x="616.8" y="355.2" text-anchor="middle" font-family="sans-serif" font-size="10">0.166</text><rect x="633.2" y="406.3" width="22.8" height="13.7" fill="#805ad5"/><text x="644.6" y="402.3" text-anchor="middle" font-family="sans-serif" font-size="10">0.037</text><text x="772.5" y="442" text-anchor="middle" font-family="sans-serif" font-size="11">tesseract/processed</text><rect x="688.9" y="80.4" width="22.8" height="339.6" fill="#c53030"/><text x="700.4" y="76.4" text-anchor="middle" font-family="sans-serif" font-size="10">0.930</text><rect x="716.8" y="178.1" width="22.8" height="241.9" fill="#dd6b20"/><text x="728.2" y="174.1" text-anchor="middle" font-family="sans-serif" font-size="10">0.663</text><rect x="744.6" y="226.7" width="22.8" height="193.3" fill="#d69e2e"/><text x="756.1" y="222.7" text-anchor="middle" font-family="sans-serif" font-size="10">0.530</text><rect x="772.5" y="313.7" width="22.8" height="106.3" fill="#38a169"/><text x="783.9" y="309.7" text-anchor="middle" font-family="sans-serif" font-size="10">0.291</text><rect x="800.4" y="227.4" width="22.8" height="192.6" fill="#3182ce"/><text x="811.8" y="223.4" text-anchor="middle" font-family="sans-serif" font-size="10">0.528</text><rect x="828.2" y="305.7" width="22.8" height="114.3" fill="#805ad5"/><text x="839.6" y="301.7" text-anchor="middle" font-family="sans-serif" font-size="10">0.313</text><rect x="90" y="488" width="14" height="14" fill="#c53030"/><text x="110" y="500" font-family="sans-serif" font-size="12">diacritic or vowel sign error</text><rect x="245" y="488" width="14" height="14" fill="#dd6b20"/><text x="265" y="500" font-family="sans-serif" font-size="12">deletion</text><rect x="400" y="488" width="14" height="14" fill="#d69e2e"/><text x="420" y="500" font-family="sans-serif" font-size="12">virama or conjunct error</text><rect x="555" y="488" width="14" height="14" fill="#38a169"/><text x="575" y="500" font-family="sans-serif" font-size="12">missing output</text><rect x="710" y="488" width="14" height="14" fill="#3182ce"/><text x="730" y="500" font-family="sans-serif" font-size="12">base character substitution</text><rect x="865" y="488" width="14" height="14" fill="#805ad5"/><text x="885" y="500" font-family="sans-serif" font-size="12">word boundary split or join</text></svg>
