<svg xmlns="http://www.w3.org/2000/svg" width="900" height="520" viewBox="0 0 900 520"><rect width="100%" height="100%" fill="white"/><text x="450.0" y="28" text-anchor="middle" font-family="sans-serif" font-size="19" font-weight="bold">Strongest descriptive associations with shared failure</text><line x1="90" y1="55" x2="90" y2="420" stroke="#333"/><line x1="90" y1="420" x2="870" y2="420" stroke="#333"/><line x1="90" y1="420.0" x2="870" y2="420.0" stroke="#e2e8f0"/><text x="82" y="424.0" text-anchor="end" font-family="sans-serif" font-size="11">0.00</text><line x1="90" y1="347.0" x2="870" y2="347.0" stroke="#e2e8f0"/><text x="82" y="351.0" text-anchor="end" font-family="sans-serif" font-size="11">0.20</text><line x1="90" y1="274.0" x2="870" y2="274.0" stroke="#e2e8f0"/><text x="82" y="278.0" text-anchor="end" font-family="sans-serif" font-size="11">0.40</text><line x1="90" y1="201.0" x2="870" y2="201.0" stroke="#e2e8f0"/><text x="82" y="205.0" text-anchor="end" font-family="sans-serif" font-size="11">0.60</text><line x1="90" y1="128.0" x2="870" y2="128.0" stroke="#e2e8f0"/><text x="82" y="132.0" text-anchor="end" font-family="sans-serif" font-size="11">0.80</text><line x1="90" y1="55.0" x2="870" y2="55.0" stroke="#e2e8f0"/><text x="82" y="59.0" text-anchor="end" font-family="sans-serif" font-size="11">1.00</text><text x="138.8" y="442" text-anchor="middle" font-family="sans-serif" font-size="11">mean_intensity</text><rect x="114.4" y="162.4" width="40.0" height="257.6" fill="#c53030"/><text x="134.4" y="158.4" text-anchor="middle" font-family="sans-serif" font-size="10">0.706</text><text x="236.2" y="442" text-anchor="middle" font-family="sans-serif" font-size="11">foreground_density</text><rect x="211.9" y="268.6" width="40.0" height="151.4" fill="#c53030"/><text x="231.9" y="264.6" text-anchor="middle" font-family="sans-serif" font-size="10">0.415</text><text x="333.8" y="442" text-anchor="middle" font-family="sans-serif" font-size="11">diacritic_density</text><rect x="309.4" y="318.7" width="40.0" height="101.3" fill="#c53030"/><text x="329.4" y="314.7" text-anchor="middle" font-family="sans-serif" font-size="10">0.277</text><text x="431.2" y="442" text-anchor="middle" font-family="sans-serif" font-size="11">contrast_std</text><rect x="406.9" y="318.8" width="40.0" height="101.2" fill="#c53030"/><text x="426.9" y="314.8" text-anchor="middle" font-family="sans-serif" font-size="10">0.277</text><text x="528.8" y="442" text-anchor="middle" font-family="sans-serif" font-size="11">conjunct_density</text><rect x="504.4" y="341.3" width="40.0" height="78.7" fill="#c53030"/><text x="524.4" y="337.3" text-anchor="middle" font-family="sans-serif" font-size="10">0.216</text><text x="626.2" y="442" text-anchor="middle" font-family="sans-serif" font-size="11">height</text><rect x="601.9" y="370.0" width="40.0" height="50.0" fill="#c53030"/><text x="621.9" y="366.0" text-anchor="middle" font-family="sans-serif" font-size="10">0.137</text><text x="723.8" y="442" text-anchor="middle" font-family="sans-serif" font-size="11">reference_length</text><rect x="699.4" y="372.5" width="40.0" height="47.5" fill="#c53030"/><text x="719.4" y="368.5" text-anchor="middle" font-family="sans-serif" font-size="10">0.130</text><text x="821.2" y="442" text-anchor="middle" font-family="sans-serif" font-size="11">width</text><rect x="796.9" y="387.7" width="40.0" height="32.3" fill="#c53030"/><text x="816.9" y="383.7" text-anchor="middle" font-family="sans-serif" font-size="10">0.088</text><rect x="90" y="488" width="14" height="14" fill="#c53030"/><text x="110" y="500" font-family="sans-serif" font-size="12">Absolute standardized difference</text></svg>
