<svg xmlns="http://www.w3.org/2000/svg" width="900" height="520" viewBox="0 0 900 520"><rect width="100%" height="100%" fill="white"/><text x="450.0" y="28" text-anchor="middle" font-family="sans-serif" font-size="19" font-weight="bold">OCR accuracy and coverage across raw, run 1, and run 2</text><line x1="90" y1="55" x2="90" y2="420" stroke="#333"/><line x1="90" y1="420" x2="870" y2="420" stroke="#333"/><line x1="90" y1="420.0" x2="870" y2="420.0" stroke="#e2e8f0"/><text x="82" y="424.0" text-anchor="end" font-family="sans-serif" font-size="11">0.00</text><line x1="90" y1="347.0" x2="870" y2="347.0" stroke="#e2e8f0"/><text x="82" y="351.0" text-anchor="end" font-family="sans-serif" font-size="11">117.00</text><line x1="90" y1="274.0" x2="870" y2="274.0" stroke="#e2e8f0"/><text x="82" y="278.0" text-anchor="end" font-family="sans-serif" font-size="11">234.00</text><line x1="90" y1="201.0" x2="870" y2="201.0" stroke="#e2e8f0"/><text x="82" y="205.0" text-anchor="end" font-family="sans-serif" font-size="11">351.00</text><line x1="90" y1="128.0" x2="870" y2="128.0" stroke="#e2e8f0"/><text x="82" y="132.0" text-anchor="end" font-family="sans-serif" font-size="11">468.00</text><line x1="90" y1="55.0" x2="870" y2="55.0" stroke="#e2e8f0"/><text x="82" y="59.0" text-anchor="end" font-family="sans-serif" font-size="11">585.00</text><text x="155.0" y="442" text-anchor="middle" font-family="sans-serif" font-size="11">surya/raw</text><rect x="106.2" y="419.6" width="26.6" height="0.4" fill="#c53030"/><text x="119.6" y="415.6" text-anchor="middle" font-family="sans-serif" font-size="10">0.677</text><rect x="138.8" y="237.8" width="26.6" height="182.2" fill="#805ad5"/><text x="152.1" y="233.8" text-anchor="middle" font-family="sans-serif" font-size="10">292.000</text><rect x="171.2" y="419.7" width="26.6" height="0.3" fill="#2f855a"/><text x="184.6" y="415.7" text-anchor="middle" font-family="sans-serif" font-size="10">0.533</text><text x="285.0" y="442" text-anchor="middle" font-family="sans-serif" font-size="11">surya/run_1</text><rect x="236.2" y="419.6" width="26.6" height="0.4" fill="#c53030"/><text x="249.6" y="415.6" text-anchor="middle" font-family="sans-serif" font-size="10">0.714</text><rect x="268.8" y="219.7" width="26.6" height="200.3" fill="#805ad5"/><text x="282.1" y="215.7" text-anchor="middle" font-family="sans-serif" font-size="10">321.000</text><rect x="301.2" y="419.7" width="26.6" height="0.3" fill="#2f855a"/><text x="314.6" y="415.7" text-anchor="middle" font-family="sans-serif" font-size="10">0.521</text><text x="415.0" y="442" text-anchor="middle" font-family="sans-serif" font-size="11">surya/run_2</text><rect x="366.2" y="419.6" width="26.6" height="0.4" fill="#c53030"/><text x="379.6" y="415.6" text-anchor="middle" font-family="sans-serif" font-size="10">0.694</text><rect x="398.8" y="65.6" width="26.6" height="354.4" fill="#805ad5"/><text x="412.1" y="61.6" text-anchor="middle" font-family="sans-serif" font-size="10">568.000</text><rect x="431.2" y="419.4" width="26.6" height="0.6" fill="#2f855a"/><text x="444.6" y="415.4" text-anchor="middle" font-family="sans-serif" font-size="10">1.000</text><text x="545.0" y="442" text-anchor="middle" font-family="sans-serif" font-size="11">tesseract/raw</text><rect x="496.2" y="419.5" width="26.6" height="0.5" fill="#c53030"/><text x="509.6" y="415.5" text-anchor="middle" font-family="sans-serif" font-size="10">0.796</text><rect x="528.8" y="295.2" width="26.6" height="124.8" fill="#805ad5"/><text x="542.1" y="291.2" text-anchor="middle" font-family="sans-serif" font-size="10">200.000</text><rect x="561.2" y="419.4" width="26.6" height="0.6" fill="#2f855a"/><text x="574.6" y="415.4" text-anchor="middle" font-family="sans-serif" font-size="10">1.000</text><text x="675.0" y="442" text-anchor="middle" font-family="sans-serif" font-size="11">tesseract/run_1</text><rect x="626.2" y="419.5" width="26.6" height="0.5" fill="#c53030"/><text x="639.6" y="415.5" text-anchor="middle" font-family="sans-serif" font-size="10">0.758</text><rect x="658.8" y="55.0" width="26.6" height="365.0" fill="#805ad5"/><text x="672.1" y="51.0" text-anchor="middle" font-family="sans-serif" font-size="10">585.000</text><rect x="691.2" y="419.4" width="26.6" height="0.6" fill="#2f855a"/><text x="704.6" y="415.4" text-anchor="middle" font-family="sans-serif" font-size="10">1.000</text><text x="805.0" y="442" text-anchor="middle" font-family="sans-serif" font-size="11">tesseract/run_2</text><rect x="756.2" y="419.6" width="26.6" height="0.4" fill="#c53030"/><text x="769.6" y="415.6" text-anchor="middle" font-family="sans-serif" font-size="10">0.687</text><rect x="788.8" y="84.9" width="26.6" height="335.1" fill="#805ad5"/><text x="802.1" y="80.9" text-anchor="middle" font-family="sans-serif" font-size="10">537.000</text><rect x="821.2" y="419.4" width="26.6" height="0.6" fill="#2f855a"/><text x="834.6" y="415.4" text-anchor="middle" font-family="sans-serif" font-size="10">1.000</text><rect x="90" y="488" width="14" height="14" fill="#c53030"/><text x="110" y="500" font-family="sans-serif" font-size="12">CER</text><rect x="245" y="488" width="14" height="14" fill="#805ad5"/><text x="265" y="500" font-family="sans-serif" font-size="12">WER</text><rect x="400" y="488" width="14" height="14" fill="#2f855a"/><text x="420" y="500" font-family="sans-serif" font-size="12">Coverage</text></svg>
