<svg xmlns="http://www.w3.org/2000/svg" width="900" height="520" viewBox="0 0 900 520"><rect width="100%" height="100%" fill="white"/><text x="450.0" y="28" text-anchor="middle" font-family="sans-serif" font-size="19" font-weight="bold">Paired improvement for each preprocessing transition</text><line x1="90" y1="55" x2="90" y2="420" stroke="#333"/><line x1="90" y1="420" x2="870" y2="420" stroke="#333"/><line x1="90" y1="420.0" x2="870" y2="420.0" stroke="#e2e8f0"/><text x="82" y="424.0" text-anchor="end" font-family="sans-serif" font-size="11">0.00</text><line x1="90" y1="347.0" x2="870" y2="347.0" stroke="#e2e8f0"/><text x="82" y="351.0" text-anchor="end" font-family="sans-serif" font-size="11">0.25</text><line x1="90" y1="274.0" x2="870" y2="274.0" stroke="#e2e8f0"/><text x="82" y="278.0" text-anchor="end" font-family="sans-serif" font-size="11">0.51</text><line x1="90" y1="201.0" x2="870" y2="201.0" stroke="#e2e8f0"/><text x="82" y="205.0" text-anchor="end" font-family="sans-serif" font-size="11">0.76</text><line x1="90" y1="128.0" x2="870" y2="128.0" stroke="#e2e8f0"/><text x="82" y="132.0" text-anchor="end" font-family="sans-serif" font-size="11">1.01</text><line x1="90" y1="55.0" x2="870" y2="55.0" stroke="#e2e8f0"/><text x="82" y="59.0" text-anchor="end" font-family="sans-serif" font-size="11">1.27</text><text x="155.0" y="442" text-anchor="middle" font-family="sans-serif" font-size="11">surya/raw_to_run_1</text><rect x="103.0" y="221.6" width="21.3" height="198.4" fill="#e53e3e"/><text x="113.7" y="217.6" text-anchor="middle" font-family="sans-serif" font-size="10">0.689</text><rect x="129.0" y="211.7" width="21.3" height="208.3" fill="#38a169"/><text x="139.7" y="207.7" text-anchor="middle" font-family="sans-serif" font-size="10">0.723</text><rect x="155.0" y="125.5" width="21.3" height="294.5" fill="#805ad5"/><text x="165.7" y="121.5" text-anchor="middle" font-family="sans-serif" font-size="10">1.022</text><rect x="181.0" y="105.4" width="21.3" height="314.6" fill="#3182ce"/><text x="191.7" y="101.4" text-anchor="middle" font-family="sans-serif" font-size="10">1.092</text><text x="285.0" y="442" text-anchor="middle" font-family="sans-serif" font-size="11">surya/run_1_to_run_2</text><rect x="233.0" y="211.7" width="21.3" height="208.3" fill="#e53e3e"/><text x="243.7" y="207.7" text-anchor="middle" font-family="sans-serif" font-size="10">0.723</text><rect x="259.0" y="213.2" width="21.3" height="206.8" fill="#38a169"/><text x="269.7" y="209.2" text-anchor="middle" font-family="sans-serif" font-size="10">0.718</text><rect x="285.0" y="105.4" width="21.3" height="314.6" fill="#805ad5"/><text x="295.7" y="101.4" text-anchor="middle" font-family="sans-serif" font-size="10">1.092</text><rect x="311.0" y="117.7" width="21.3" height="302.3" fill="#3182ce"/><text x="321.7" y="113.7" text-anchor="middle" font-family="sans-serif" font-size="10">1.049</text><text x="415.0" y="442" text-anchor="middle" font-family="sans-serif" font-size="11">surya/raw_to_run_2</text><rect x="363.0" y="219.9" width="21.3" height="200.1" fill="#e53e3e"/><text x="373.7" y="215.9" text-anchor="middle" font-family="sans-serif" font-size="10">0.694</text><rect x="389.0" y="212.5" width="21.3" height="207.5" fill="#38a169"/><text x="399.7" y="208.5" text-anchor="middle" font-family="sans-serif" font-size="10">0.720</text><rect x="415.0" y="120.5" width="21.3" height="299.5" fill="#805ad5"/><text x="425.7" y="116.5" text-anchor="middle" font-family="sans-serif" font-size="10">1.039</text><rect x="441.0" y="118.4" width="21.3" height="301.6" fill="#3182ce"/><text x="451.7" y="114.4" text-anchor="middle" font-family="sans-serif" font-size="10">1.047</text><text x="545.0" y="442" text-anchor="middle" font-family="sans-serif" font-size="11">tesseract/raw_to_run_1</text><rect x="493.0" y="174.0" width="21.3" height="246.0" fill="#e53e3e"/><text x="503.7" y="170.0" text-anchor="middle" font-family="sans-serif" font-size="10">0.854</text><rect x="519.0" y="195.4" width="21.3" height="224.6" fill="#38a169"/><text x="529.7" y="191.4" text-anchor="middle" font-family="sans-serif" font-size="10">0.779</text><rect x="545.0" y="134.6" width="21.3" height="285.4" fill="#805ad5"/><text x="555.7" y="130.6" text-anchor="middle" font-family="sans-serif" font-size="10">0.991</text><rect x="571.0" y="60.8" width="21.3" height="359.2" fill="#3182ce"/><text x="581.7" y="56.8" text-anchor="middle" font-family="sans-serif" font-size="10">1.246</text><text x="675.0" y="442" text-anchor="middle" font-family="sans-serif" font-size="11">tesseract/run_1_to_run_2</text><rect x="623.0" y="195.4" width="21.3" height="224.6" fill="#e53e3e"/><text x="633.7" y="191.4" text-anchor="middle" font-family="sans-serif" font-size="10">0.779</text><rect x="649.0" y="219.0" width="21.3" height="201.0" fill="#38a169"/><text x="659.7" y="215.0" text-anchor="middle" font-family="sans-serif" font-size="10">0.697</text><rect x="675.0" y="60.8" width="21.3" height="359.2" fill="#805ad5"/><text x="685.7" y="56.8" text-anchor="middle" font-family="sans-serif" font-size="10">1.246</text><rect x="701.0" y="55.0" width="21.3" height="365.0" fill="#3182ce"/><text x="711.7" y="51.0" text-anchor="middle" font-family="sans-serif" font-size="10">1.267</text><text x="805.0" y="442" text-anchor="middle" font-family="sans-serif" font-size="11">tesseract/raw_to_run_2</text><rect x="753.0" y="174.0" width="21.3" height="246.0" fill="#e53e3e"/><text x="763.7" y="170.0" text-anchor="middle" font-family="sans-serif" font-size="10">0.854</text><rect x="779.0" y="219.0" width="21.3" height="201.0" fill="#38a169"/><text x="789.7" y="215.0" text-anchor="middle" font-family="sans-serif" font-size="10">0.697</text><rect x="805.0" y="134.6" width="21.3" height="285.4" fill="#805ad5"/><text x="815.7" y="130.6" text-anchor="middle" font-family="sans-serif" font-size="10">0.991</text><rect x="831.0" y="55.0" width="21.3" height="365.0" fill="#3182ce"/><text x="841.7" y="51.0" text-anchor="middle" font-family="sans-serif" font-size="10">1.267</text><rect x="90" y="488" width="14" height="14" fill="#e53e3e"/><text x="110" y="500" font-family="sans-serif" font-size="12">Baseline CER</text><rect x="245" y="488" width="14" height="14" fill="#38a169"/><text x="265" y="500" font-family="sans-serif" font-size="12">Candidate CER</text><rect x="400" y="488" width="14" height="14" fill="#805ad5"/><text x="420" y="500" font-family="sans-serif" font-size="12">Baseline WER</text><rect x="555" y="488" width="14" height="14" fill="#3182ce"/><text x="575" y="500" font-family="sans-serif" font-size="12">Candidate WER</text></svg>
