<svg xmlns="http://www.w3.org/2000/svg" width="900" height="520" viewBox="0 0 900 520"><rect width="100%" height="100%" fill="white"/><text x="450.0" y="28" text-anchor="middle" font-family="sans-serif" font-size="19" font-weight="bold">Observed OCR runtime per word region</text><line x1="90" y1="55" x2="90" y2="420" stroke="#333"/><line x1="90" y1="420" x2="870" y2="420" stroke="#333"/><line x1="90" y1="420.0" x2="870" y2="420.0" stroke="#e2e8f0"/><text x="82" y="424.0" text-anchor="end" font-family="sans-serif" font-size="11">0.00</text><line x1="90" y1="347.0" x2="870" y2="347.0" stroke="#e2e8f0"/><text x="82" y="351.0" text-anchor="end" font-family="sans-serif" font-size="11">6.27</text><line x1="90" y1="274.0" x2="870" y2="274.0" stroke="#e2e8f0"/><text x="82" y="278.0" text-anchor="end" font-family="sans-serif" font-size="11">12.54</text><line x1="90" y1="201.0" x2="870" y2="201.0" stroke="#e2e8f0"/><text x="82" y="205.0" text-anchor="end" font-family="sans-serif" font-size="11">18.82</text><line x1="90" y1="128.0" x2="870" y2="128.0" stroke="#e2e8f0"/><text x="82" y="132.0" text-anchor="end" font-family="sans-serif" font-size="11">25.09</text><line x1="90" y1="55.0" x2="870" y2="55.0" stroke="#e2e8f0"/><text x="82" y="59.0" text-anchor="end" font-family="sans-serif" font-size="11">31.36</text><text x="187.5" y="442" text-anchor="middle" font-family="sans-serif" font-size="11">surya/raw</text><rect x="114.4" y="194.3" width="40.0" height="225.7" fill="#38a169"/><text x="134.4" y="190.3" text-anchor="middle" font-family="sans-serif" font-size="10">19.393</text><rect x="163.1" y="183.5" width="40.0" height="236.5" fill="#3182ce"/><text x="183.1" y="179.5" text-anchor="middle" font-family="sans-serif" font-size="10">20.321</text><rect x="211.9" y="55.0" width="40.0" height="365.0" fill="#c53030"/><text x="231.9" y="51.0" text-anchor="middle" font-family="sans-serif" font-size="10">31.359</text><text x="382.5" y="442" text-anchor="middle" font-family="sans-serif" font-size="11">surya/processed</text><rect x="309.4" y="289.4" width="40.0" height="130.6" fill="#38a169"/><text x="329.4" y="285.4" text-anchor="middle" font-family="sans-serif" font-size="10">11.220</text><rect x="358.1" y="275.3" width="40.0" height="144.7" fill="#3182ce"/><text x="378.1" y="271.3" text-anchor="middle" font-family="sans-serif" font-size="10">12.432</text><rect x="406.9" y="149.4" width="40.0" height="270.6" fill="#c53030"/><text x="426.9" y="145.4" text-anchor="middle" font-family="sans-serif" font-size="10">23.251</text><text x="577.5" y="442" text-anchor="middle" font-family="sans-serif" font-size="11">tesseract/raw</text><rect x="504.4" y="409.5" width="40.0" height="10.5" fill="#38a169"/><text x="524.4" y="405.5" text-anchor="middle" font-family="sans-serif" font-size="10">0.901</text><rect x="553.1" y="409.3" width="40.0" height="10.7" fill="#3182ce"/><text x="573.1" y="405.3" text-anchor="middle" font-family="sans-serif" font-size="10">0.918</text><rect x="601.9" y="406.3" width="40.0" height="13.7" fill="#c53030"/><text x="621.9" y="402.3" text-anchor="middle" font-family="sans-serif" font-size="10">1.174</text><text x="772.5" y="442" text-anchor="middle" font-family="sans-serif" font-size="11">tesseract/processed</text><rect x="699.4" y="413.2" width="40.0" height="6.8" fill="#38a169"/><text x="719.4" y="409.2" text-anchor="middle" font-family="sans-serif" font-size="10">0.584</text><rect x="748.1" y="413.1" width="40.0" height="6.9" fill="#3182ce"/><text x="768.1" y="409.1" text-anchor="middle" font-family="sans-serif" font-size="10">0.595</text><rect x="796.9" y="411.8" width="40.0" height="8.2" fill="#c53030"/><text x="816.9" y="407.8" text-anchor="middle" font-family="sans-serif" font-size="10">0.700</text><rect x="90" y="488" width="14" height="14" fill="#38a169"/><text x="110" y="500" font-family="sans-serif" font-size="12">Median</text><rect x="245" y="488" width="14" height="14" fill="#3182ce"/><text x="265" y="500" font-family="sans-serif" font-size="12">Mean</text><rect x="400" y="488" width="14" height="14" fill="#c53030"/><text x="420" y="500" font-family="sans-serif" font-size="12">P95</text></svg>
